<svg width="94" height="94" viewBox="0 0 94 94" fill="none" xmlns="http://www.w3.org/2000/svg">
<g filter="url(#filter0_d_765_17003)">
<path opacity="0.3" d="M22.2707 43.6154C26.8036 60.5884 35.2181 66.5589 53.4275 61.6635C70.3444 57.1156 76.2952 48.6732 71.416 30.4033C66.8831 13.4304 58.4686 7.45989 40.2591 12.3553C23.3423 16.9032 17.3915 25.3456 22.2707 43.6154Z" fill="#F99597"/>
<g clip-path="url(#clip0_765_17003)">
<path d="M56.7242 31.3739L59.6401 42.2921M39.3129 36.0547L42.2287 46.9729M36.0482 36.9324L38.9641 47.8506M53.4596 32.2515L56.3755 43.1697M39.0032 50.1805L60.7674 44.3294M37.5557 53.4951L63.6728 46.4739M46.9694 36.3368L45.8812 36.6293C45.5926 36.7069 45.3465 36.8964 45.1971 37.156C45.0477 37.4156 45.0072 37.7241 45.0846 38.0137L45.1939 38.4231C45.257 38.6594 45.3948 38.8687 45.5865 39.0197C45.7783 39.1707 46.0137 39.2553 46.2574 39.2606L49.261 39.3273C49.5047 39.3327 49.7401 39.4172 49.9318 39.5682C50.1236 39.7192 50.2613 39.9286 50.3244 40.1648L50.6038 41.2108C50.6811 41.5003 50.6406 41.8089 50.4912 42.0685C50.3418 42.3281 50.0957 42.5175 49.8071 42.5951L48.7189 42.8877M46.9694 36.3368L48.0576 36.0442C48.3462 35.9666 48.6537 36.0073 48.9125 36.1571C49.1713 36.307 49.3601 36.5539 49.4374 36.8435L49.5832 37.3894M46.9694 36.3368L46.3862 34.1531M48.7189 42.8877L47.6307 43.1802C47.3421 43.2578 47.0346 43.2172 46.7758 43.0673C46.5171 42.9174 46.3283 42.6705 46.2509 42.381L46.1051 41.8351M48.7189 42.8877L49.3021 45.0713M58.0988 27.7863L58.3175 28.6052L33.2887 35.3338L33.07 34.515C38.0007 31.1415 40.828 28.6262 43.6357 24.9458L44.1798 24.7995C48.4455 26.5783 52.1475 27.3384 58.0988 27.7863Z" stroke="#B93B3D"/>
</g>
</g>
<defs>
<filter id="filter0_d_765_17003" x="-4.31354" y="-4.25098" width="102.314" height="102.521" filterUnits="userSpaceOnUse" color-interpolation-filters="sRGB">
<feFlood flood-opacity="0" result="BackgroundImageFix"/>
<feColorMatrix in="SourceAlpha" type="matrix" values="0 0 0 0 0 0 0 0 0 0 0 0 0 0 0 0 0 0 127 0" result="hardAlpha"/>
<feOffset dy="10"/>
<feGaussianBlur stdDeviation="10"/>
<feColorMatrix type="matrix" values="0 0 0 0 0.541704 0 0 0 0 0.541704 0 0 0 0 0.541704 0 0 0 0.15 0"/>
<feBlend mode="normal" in2="BackgroundImageFix" result="effect1_dropShadow_765_17003"/>
<feBlend mode="normal" in="SourceGraphic" in2="effect1_dropShadow_765_17003" result="shape"/>
</filter>
<clipPath id="clip0_765_17003">
<rect width="27.0444" height="27.122" fill="white" transform="matrix(0.965711 -0.259619 0.258021 0.966139 30.7034 27.8374)"/>
</clipPath>
</defs>
</svg>
