<svg width="56" height="57" viewBox="0 0 56 57" fill="none" xmlns="http://www.w3.org/2000/svg">
<g opacity="0.5">
<path d="M45.5 48.5L10.5 48.5C8.83972 48.5001 7.24234 47.8649 6.03553 46.7247C4.82873 45.5844 4.10399 44.0256 4.01 42.368L4 42L4 13C3.99986 11.8597 4.43259 10.762 5.21074 9.92849C5.98889 9.09503 7.05442 8.58804 8.192 8.51L8.5 8.5L39.5 8.5C40.6403 8.49986 41.738 8.93259 42.5715 9.71074C43.405 10.4889 43.912 11.5544 43.99 12.692L44 13L44 14.5L47.5 14.5C48.6403 14.4999 49.738 14.9326 50.5715 15.7107C51.405 16.4889 51.912 17.5544 51.99 18.692L52 19L52 42C52.0001 43.6603 51.3649 45.2577 50.2247 46.4645C49.0844 47.6713 47.5256 48.396 45.868 48.49L45.5 48.5ZM10.5 45.5L45.5 45.5C46.3787 45.4999 47.2252 45.1693 47.8714 44.5739C48.5176 43.9785 48.9162 43.1618 48.988 42.286L49 42L49 19C49 18.6375 48.8687 18.2873 48.6305 18.0141C48.3922 17.741 48.0631 17.5633 47.704 17.514L47.5 17.5L44 17.5L44 39C44 39.3625 43.8687 39.7127 43.6305 39.9859C43.3922 40.259 43.0631 40.4367 42.704 40.486L42.5 40.5C42.1375 40.5 41.7873 40.3687 41.5141 40.1305C41.241 39.8922 41.0633 39.5631 41.014 39.204L41 39L41 13C41 12.6375 40.8687 12.2873 40.6305 12.0141C40.3922 11.741 40.0631 11.5633 39.704 11.514L39.5 11.5L8.5 11.5C8.13752 11.5 7.78732 11.6313 7.51414 11.8695C7.24096 12.1078 7.0633 12.4369 7.014 12.796L7 13L7 42C7.00003 42.8784 7.33034 43.7246 7.92536 44.3708C8.52037 45.0169 9.3366 45.4157 10.212 45.488L10.5 45.5ZM20.492 26.508C21.872 26.508 22.992 27.628 22.992 29.008L22.992 36C22.992 37.38 21.872 38.5 20.492 38.5L13.5 38.5C12.12 38.5 11 37.38 11 36L11 29.008C11 27.628 12.12 26.508 13.5 26.508L20.492 26.508ZM28.5 35.5L35.492 35.5C35.872 35.5001 36.2379 35.6445 36.5156 35.9039C36.7933 36.1634 36.9621 36.5186 36.988 36.8978C37.014 37.2769 36.895 37.6518 36.6551 37.9466C36.4153 38.2414 36.0725 38.4342 35.696 38.486L35.492 38.5L28.5 38.5C28.12 38.4999 27.7541 38.3555 27.4764 38.0961C27.1987 37.8366 27.0298 37.4814 27.0039 37.1022C26.978 36.7231 27.097 36.3482 27.3369 36.0534C27.5767 35.7586 27.9195 35.5658 28.296 35.514L28.5 35.5ZM19.994 29.508L14 29.508L14 35.5L19.994 35.5L19.994 29.508ZM28.5 26.508L35.492 26.508C35.872 26.5081 36.2379 26.6525 36.5156 26.9119C36.7933 27.1714 36.9621 27.5266 36.9881 27.9058C37.014 28.2849 36.895 28.6598 36.6551 28.9546C36.4153 29.2494 36.0725 29.4422 35.696 29.494L35.492 29.508L28.5 29.508C28.1172 29.5119 27.7475 29.3693 27.4664 29.1095C27.1854 28.8496 27.0143 28.4921 26.9882 28.1103C26.9622 27.7284 27.0831 27.351 27.3262 27.0553C27.5693 26.7597 27.9163 26.5682 28.296 26.52L28.5 26.508ZM12.492 17.494L35.492 17.494C35.872 17.4941 36.2379 17.6385 36.5156 17.8979C36.7933 18.1574 36.9621 18.5126 36.9881 18.8918C37.014 19.2709 36.895 19.6458 36.6551 19.9406C36.4153 20.2354 36.0725 20.4282 35.696 20.48L35.492 20.494L12.492 20.494C12.1121 20.4934 11.7466 20.3487 11.4693 20.089C11.192 19.8294 11.0235 19.4743 10.9979 19.0952C10.9722 18.7162 11.0913 18.3416 11.3312 18.047C11.571 17.7524 11.9137 17.5598 12.29 17.508L12.492 17.494Z" fill="#828282"/>
</g>
</svg>
