<svg width="156" height="162" viewBox="0 0 156 162" fill="none" xmlns="http://www.w3.org/2000/svg">
<g opacity="0.8">
<path d="M16.6461 71.1778C16.6461 71.1778 44.0561 70.0802 49.9794 25.024C55.2395 -14.9902 101.46 3.22278 114.821 19.1734C132.128 39.8361 122.902 75.3803 145.291 79.8705C167.681 84.3608 153.06 134.285 119.074 129.506C76.7971 123.562 87.0257 148.266 74.3344 158.722C65.2261 166.227 27.8787 159.003 26.634 131.761C25.5865 108.837 15.9167 108.909 9.0627 106.31C-0.822362 102.561 -7.05104 75.411 16.6461 71.1778Z" fill="#F3F3F3"/>
<path d="M109.825 121.215L82.8951 94.6055L77.5627 100.002L104.492 126.612L109.825 121.215Z" fill="#D9D9D9"/>
<path d="M120.112 128.366L99.1605 107.663C99.0438 107.548 98.8558 107.549 98.7406 107.666L90.8107 115.691C90.6954 115.808 90.6965 115.996 90.8132 116.111L111.764 136.813C111.881 136.929 112.069 136.928 112.184 136.811L120.114 128.786C120.23 128.669 120.228 128.481 120.112 128.366Z" fill="#828282"/>
<path d="M59.0274 107.989C77.5541 107.989 92.573 92.9697 92.573 74.443C92.573 55.9163 77.5541 40.8975 59.0274 40.8975C40.5007 40.8975 25.4819 55.9163 25.4819 74.443C25.4819 92.9697 40.5007 107.989 59.0274 107.989Z" fill="#828282"/>
<path d="M59.0273 102.515C74.531 102.515 87.0993 89.9468 87.0993 74.443C87.0993 58.9393 74.531 46.3711 59.0273 46.3711C43.5236 46.3711 30.9554 58.9393 30.9554 74.443C30.9554 89.9468 43.5236 102.515 59.0273 102.515Z" fill="#F3F3F3"/>
<path d="M115.74 44.1176C107.871 41.5671 99.3678 45.8808 96.8069 53.7817C94.2564 61.6504 98.57 70.1539 106.471 72.7147C114.372 75.2755 122.854 70.9196 125.405 63.0506C127.956 55.1816 123.609 46.668 115.74 44.1176ZM113.366 51.4428C114.246 51.7283 115.023 52.269 115.596 52.9962C116.169 53.7234 116.513 54.6044 116.584 55.5275C116.656 56.4506 116.452 57.3742 115.998 58.1811C115.544 58.988 114.861 59.6419 114.034 60.0599C113.208 60.4778 112.276 60.641 111.357 60.5287C110.438 60.4164 109.573 60.0336 108.872 59.429C108.171 58.8244 107.665 58.0252 107.419 57.1327C107.173 56.2402 107.197 55.2947 107.489 54.416C108.277 51.9849 110.934 50.6549 113.366 51.4428ZM107.425 69.7719C104.811 68.9288 102.571 67.2032 101.089 64.8904C103.862 63.3148 106.761 62.876 109.384 63.7262C112.008 64.5764 114.14 66.6108 115.42 69.5352C112.863 70.539 110.037 70.6227 107.425 69.7719Z" fill="#828282"/>
<path d="M50.2471 115.821C48.8803 116.519 47.7512 117.606 47.0023 118.945C46.2535 120.285 45.9187 121.816 46.0402 123.346C46.1617 124.875 46.7341 126.335 47.685 127.539C48.6358 128.743 49.9225 129.639 51.3822 130.112C52.842 130.585 54.4092 130.615 55.8858 130.197C57.3624 129.779 58.682 128.933 59.6777 127.766C60.6734 126.598 61.3006 125.162 61.4798 123.638C61.6591 122.114 61.3824 120.571 60.6847 119.204C59.7476 117.373 58.1223 115.988 56.1655 115.354C54.2087 114.72 52.0802 114.888 50.2471 115.821ZM52.0542 119.361C52.4799 119.144 52.9605 119.058 53.4351 119.114C53.9097 119.17 54.357 119.366 54.7201 119.677C55.0832 119.988 55.3458 120.399 55.4746 120.86C55.6034 121.32 55.5926 121.808 55.4435 122.262C55.2945 122.716 55.014 123.116 54.6375 123.41C54.261 123.705 53.8056 123.881 53.3289 123.916C52.8523 123.951 52.3759 123.844 51.9603 123.608C51.5446 123.372 51.2084 123.018 50.9943 122.591C50.7104 122.021 50.6625 121.363 50.861 120.758C51.0594 120.154 51.4881 119.652 52.0542 119.361V119.361ZM56.5757 128.219C55.3139 128.866 53.8665 129.054 52.4816 128.75C52.9186 127.163 53.8167 125.945 55.0846 125.298C56.3526 124.651 57.8734 124.615 59.4076 125.215C58.8407 126.515 57.8396 127.577 56.5757 128.219V128.219Z" fill="#D9D9D9"/>
</g>
</svg>
