<svg width="86" height="86" viewBox="0 0 86 86" fill="none" xmlns="http://www.w3.org/2000/svg">
<g filter="url(#filter0_d_765_17007)">
<path opacity="0.3" d="M24.5822 22.1288C17.2971 34.7703 18.7429 43.2345 32.3153 51.0849C44.9243 58.3781 53.3707 56.9237 61.2125 43.3163C68.4977 30.6748 67.0518 22.2106 53.4794 14.3602C40.8705 7.067 32.424 8.52143 24.5822 22.1288Z" fill="#AF52DE"/>
<g clip-path="url(#clip0_765_17007)">
<path d="M33.0583 27.0314C35.1658 23.3742 36.2199 21.5452 38.008 21.0653C39.7958 20.5839 41.6201 21.6391 45.2678 23.749L49.1371 25.987C52.7848 28.0969 54.6091 29.1521 55.0868 30.9439C55.5661 32.7353 54.512 34.5643 52.4044 38.2215C50.2969 41.8786 49.2428 43.7076 47.4547 44.1875C45.6669 44.669 43.8426 43.6137 40.1949 41.5038L36.3256 39.2658C32.6779 37.1559 30.8536 36.1007 30.3759 34.3089C29.8966 32.5175 30.9507 30.6885 33.0583 27.0314Z" stroke="#AF52DE"/>
<path d="M38.5612 35.3866L34.6919 33.1486M42.4304 37.6247L40.9794 36.7854M34.176 25.0918L53.5222 36.2819" stroke="#AF52DE" stroke-linecap="round"/>
</g>
</g>
<defs>
<filter id="filter0_d_765_17007" x="-5.99982" y="-6.2334" width="97.7944" height="97.9121" filterUnits="userSpaceOnUse" color-interpolation-filters="sRGB">
<feFlood flood-opacity="0" result="BackgroundImageFix"/>
<feColorMatrix in="SourceAlpha" type="matrix" values="0 0 0 0 0 0 0 0 0 0 0 0 0 0 0 0 0 0 127 0" result="hardAlpha"/>
<feOffset dy="10"/>
<feGaussianBlur stdDeviation="10"/>
<feColorMatrix type="matrix" values="0 0 0 0 0.541704 0 0 0 0 0.541704 0 0 0 0 0.541704 0 0 0 0.15 0"/>
<feBlend mode="normal" in2="BackgroundImageFix" result="effect1_dropShadow_765_17007"/>
<feBlend mode="normal" in="SourceGraphic" in2="effect1_dropShadow_765_17007" result="shape"/>
</filter>
<clipPath id="clip0_765_17007">
<rect width="26.8192" height="26.8636" fill="white" transform="matrix(0.865627 0.50069 -0.49931 0.866423 37.8303 14.2749)"/>
</clipPath>
</defs>
</svg>
