<svg width="10" height="16" viewBox="0 0 10 16" fill="none" xmlns="http://www.w3.org/2000/svg">
<path d="M9.09336 4C8.72461 4 8.42773 4.29688 8.42773 4.66563V11.3313C8.42773 13.1719 6.93711 14.6656 5.09336 14.6656C3.24961 14.6656 1.75898 13.1719 1.75898 11.3313V3.33125C1.75898 2.22813 2.65273 1.33125 3.75898 1.33125C4.86523 1.33125 5.75898 2.22813 5.75898 3.33125V10C5.75898 10.3687 5.45898 10.6656 5.09336 10.6656C4.72773 10.6656 4.42773 10.3687 4.42773 10V4.66563C4.42773 4.29688 4.12773 4 3.76211 4C3.39336 4 3.09648 4.29688 3.09648 4.66563V10C3.09648 11.1062 3.99023 12 5.09648 12C6.20273 12 7.09648 11.1062 7.09648 10V3.33437C7.09336 1.49375 5.59961 0 3.75898 0C1.91836 0 0.427734 1.49375 0.427734 3.33437V11.3344C0.427734 13.9125 2.51836 16 5.09336 16C7.66836 16 9.75898 13.9094 9.75898 11.3344V4.66563C9.75898 4.29688 9.46211 4 9.09336 4Z" fill="black"/>
</svg>
