<svg width="48" height="48" viewBox="0 0 48 48" fill="none" xmlns="http://www.w3.org/2000/svg">
<path d="M18 20L24.516 24.888C24.9197 25.1908 25.4229 25.3297 25.9247 25.2771C26.4266 25.2244 26.89 24.984 27.222 24.604L40 10" stroke="#62C35D" stroke-width="3" stroke-linecap="round"/>
<path d="M42 23.9997C42.0001 27.7607 40.822 31.4273 38.6313 34.4845C36.4406 37.5417 33.3473 39.8358 29.7858 41.0448C26.2244 42.2537 22.3737 42.3167 18.7746 41.2248C15.1755 40.133 12.0088 37.9412 9.71935 34.9573C7.42984 31.9734 6.13253 28.3473 6.00962 24.5883C5.8867 20.8292 6.94436 17.1261 9.03405 13.999C11.1237 10.8719 14.1405 8.47793 17.6605 7.15331C21.1806 5.82869 25.0272 5.63998 28.66 6.61367" stroke="#62C35D" stroke-width="3" stroke-linecap="round"/>
</svg>
