<svg width="16" height="16" viewBox="0 0 16 16" fill="none" xmlns="http://www.w3.org/2000/svg">
<path fill-rule="evenodd" clip-rule="evenodd" d="M7.99967 1.33398C4.31767 1.33398 1.33301 4.31865 1.33301 8.00065C1.33301 11.6827 4.31767 14.6673 7.99967 14.6673C11.6817 14.6673 14.6663 11.6827 14.6663 8.00065C14.6663 4.31865 11.6817 1.33398 7.99967 1.33398ZM7.99967 2.00065C7.99967 3.59195 7.36753 5.11807 6.24231 6.24329C5.1171 7.36851 3.59097 8.00065 1.99967 8.00065C3.59097 8.00065 5.1171 8.63279 6.24231 9.75801C7.36753 10.8832 7.99967 12.4094 7.99967 14.0007C7.99967 12.4094 8.63181 10.8832 9.75703 9.75801C10.8823 8.63279 12.4084 8.00065 13.9997 8.00065C12.4084 8.00065 10.8823 7.36851 9.75703 6.24329C8.63181 5.11807 7.99967 3.59195 7.99967 2.00065Z" fill="url(#paint0_linear_1376_19900)"/>
<defs>
<linearGradient id="paint0_linear_1376_19900" x1="1.33301" y1="1.33398" x2="15.5492" y2="2.49707" gradientUnits="userSpaceOnUse">
<stop stop-color="#DD1B1C"/>
<stop offset="1" stop-color="#9E1E1F"/>
</linearGradient>
</defs>
</svg>
